<svg xmlns="http://www.w3.org/2000/svg" version="1.1" width="600px" height="600px" xlink="http://www.w3.org/1999/xlink" style="overflow:hidden!important;"><g id="svga-group-wrapper" transform="scale(3 3)"><g id="svga-group-backs-single"><path id="SvgjsPath4529" d="M225 225H-25V-25h250V225z" fill="#ecf0f1" stroke-width="none" opacity="1"></path></g><g id="svga-group-subwrapper" transform="matrix(0.84999948 0 0 0.84999948 14.979303539305008 16.262347712002864) translate(0 6.0000002)"><g id="svga-group-hair-back" transform="rotate(-1e-7 100 150)"><path id="SvgjsPath4389" d="M100.5,100.5h-1v-1h1V100.5z" fill="#2a232b" stroke-width="none" opacity="1"></path></g><g id="svga-group-humanbody-single"><path id="SvgjsPath2893" d="M195.417 199.778c-2.196-4.746-8.195-11.779-14.86-13.722 -8.239-2.403-26.837-5.308-33.733-6.923 -5.528-1.296-16.662-11.294-20.564-14.65 -0.7-0.6-1.273-1.839-1.287-2.76 -0.139-10.864 4.195-39.724 4.195-39.724H100 70.833c0 0 4.334 28.859 4.193 39.724 -0.011 0.921-0.587 2.16-1.285 2.76 -3.902 3.356-15.036 13.354-20.564 14.65 -6.897 1.615-25.495 4.619-33.733 7.022 -6.667 1.942-12.664 8.876-14.86 13.622 -3.708 8.008-4.584 22.5-4.584 35h100 100C200 222.278 199.123 207.786 195.417 199.778z" fill="#ffd0bc" stroke-width="none" opacity="1" stroke="none"></path><path id="SvgjsPath2894" d="M159.156 184.058c24.342 3.542 34.586 8.708 37.794 50.721H200c0-12.5-0.877-26.992-4.583-35 -2.196-4.746-8.195-11.779-14.86-13.722 -8.239-2.403-26.837-5.308-33.733-6.923 -5.528-1.296-18.242-12.069-21.643-16.35 3.36 4.704 12.791 15.605 21.054 18.46C150.188 182.61 153.48 183.232 159.156 184.058zM53.766 181.244c8.263-2.854 17.693-13.756 21.054-18.46 -3.4 4.28-16.114 15.054-21.643 16.35 -6.896 1.615-25.494 4.619-33.733 7.022 -6.665 1.942-12.664 8.876-14.86 13.622 -3.706 8.008-4.583 22.5-4.583 35h3.05c3.188-41.744 13.475-47.183 37.794-50.721C46.52 183.232 49.813 182.61 53.766 181.244z" fill="#ffe2d6" stroke-width="none" opacity="1" stroke="none"></path><path id="SvgjsPath2895" d="M95.646 197.62c0 0-5.074-1.609-7.083-2.379 -10.449-4.009-44.395-6.607-44.395-6.607s35.754 1.419 43.644 2.779c-0.458-4.767-3.017-20.004-3.017-20.004s5.149 16.815 6.409 21.057C91.878 194.734 95.646 197.62 95.646 197.62zM106.445 196.278c-0.089 0.073-0.191 0.168-0.302 0.268C106.256 196.461 106.358 196.372 106.445 196.278zM95.646 197.62c0 0 2.893 2.992 4.347 3.03 1.91 0.051 4.828-2.899 6.151-4.104 -1.265 0.957-4.159 1.391-5.31 1.436C99.504 198.033 95.646 197.62 95.646 197.62zM116.664 190.101c-1.545 0.248-4.386 0.789-4.386 0.789l2.287-14.89c-0.646 3.071-4.474 16.211-8.12 20.278 1.91-1.616 6.158-2.391 8.324-2.704 10.236-1.484 10.232-1.483 41.062-4.94C155.831 188.634 126.76 188.479 116.664 190.101z" fill="#f0b399" stroke-width="none" opacity="1" stroke="none"></path><path id="SvgjsPath2896" d="M195.417 199.778c-2.196-4.746-8.195-11.779-14.86-13.722 -8.239-2.403-26.837-5.308-33.733-6.923 -5.528-1.296-16.662-11.294-20.564-14.65 -0.7-0.6-1.273-1.839-1.287-2.76 -0.139-10.864 4.195-39.724 4.195-39.724H100 70.833c0 0 4.334 28.859 4.193 39.724 -0.011 0.921-0.587 2.16-1.285 2.76 -3.902 3.356-15.036 13.354-20.564 14.65 -6.897 1.615-25.495 4.619-33.733 7.022 -6.667 1.942-12.664 8.876-14.86 13.622 -3.708 8.008-4.584 22.5-4.584 35h100 100C200 222.278 199.123 207.786 195.417 199.778z" fill="none" stroke="#d17f5b" stroke-width="1.5" opacity="1"></path></g><g id="svga-group-chinshadow-single"><path id="SvgjsPath3139" d="M109.536 170.861c4.446-1.662 9.623-5.664 14.692-10.57 0.134-7.874 1.927-22.141 3.129-30.907 -15.727-1.816-38.988-1.81-54.712 0.013 1.201 8.766 2.992 23.017 3.125 30.887 5.071 4.909 10.251 8.915 14.699 10.578C94.942 172.534 105.063 172.534 109.536 170.861z" fill="url(#SvgjsLinearGradient3140)" opacity="1"></path></g><g id="svga-group-clothes-single" ><path id="SvgjsPath4485" d="M197.798 201.546c-10.478-20.278-30.653-17.404-49.968-22.843 -0.468 3.585-13.251 20.479-16.287 30.061 -1.705-1.423-3.74-3.325-5.209-5.066 -7.188-8.443-17.841-35.76-21.416-14.428 0.777-9.576 5.003-11.686 10.871-3.659 6.308 8.638 6.542 13.098 15.542 22.491 1.59-6.601 5.032-11.259 9.036-17.104 3.875-5.663 6.705-8.217 7.119-13.258 -1.445-2.408-1.099-3.486-3.434-5.046 -14.655-9.912-4.192-19.97-17.476-22.365 -0.104 1.198-0.235 2.54-0.345 3.549 2.841 1.462 3.691 7.152-0.683 11.318 -6.951 7.631-18.12 8.01-21.032 19.723l-0.007-0.001c-0.927 3.477-1.669 8.799-2.021 11.919l-2.455 24.898 -2.47-24.457c-2.003-18.359-4.621-20.155-13.183-25.828 -5.673-3.76-14.943-9.433-11.917-15.847 0.345-0.742 0.765-1.198 1.286-1.541 -0.15-1.466-0.238-2.316-0.354-3.678 -10.967 0.467-9.281 15.982-17.586 21.69 -2.177 1.496-3.287 2.879-4.068 5.129 0.531 6.281 14.504 20.476 16.945 30.899 9.085-9.592 9.155-13.783 15.5-22.459 5.465-7.465 9.928-6.699 10.867 3.403 -0.516-3.035-1.738-7.681-4.386-7.681 -2.182 0-4.456 3.218-5.581 4.771 -6.299 8.678-7.311 14.885-16.647 22.633 -0.646-1.941-1.404-3.891-2.308-5.706 -3.7-7.474-13.719-22.555-14.858-24.017 -4.428 1.246-11.177 2.626-15.233 3.3 -26.504 4.411-36.778 12.969-40.685 53.031 97.202-0.984 136.811-0.556 209.21-0.556C203.66 225.907 201.881 209.46 197.798 201.546z" fill="#d46fbb" stroke-width="none" opacity="1" stroke="none"></path><path id="SvgjsPath4486" d="M139.969 190.783c-3.461 5.054-6.201 9.3-7.908 14.621 1.967-10.979 14.436-21.374 13.086-27.939 -0.578-2.812-10.526-9.081-11.041-18.4 2.745 8.538 12.992 14.632 13.009 18.723C147.142 184.482 146.942 180.595 139.969 190.783zM204.486 234.028c0.347-8.682-2.572-25.584-6.19-32.598 -10.478-20.278-31.563-17.691-50.877-23.13 -0.171 0.218 0.49 1.66 0.027 2.28C192.595 188.9 197.736 198.817 204.486 234.028zM55.812 172.075c5.547-4.597 7.21-9.05 8.483-13.011 -2.85 16.28-7.111 10.123-10.22 18.276 -1.778 4.663 12.003 17.403 13.866 28.063 -2.442-4.175-5.06-9.313-8.521-14.367 -2.694-3.937-4.41-7.537-7.079-10.567C51.069 173.756 53.696 173.829 55.812 172.075zM52.34 180.47c-0.463-0.62-0.894-1.204-1.065-1.422 -19.314 5.438-38.594 2.104-49.071 22.383 -3.619 7.014-5.426 21.363-6.423 30.064 1.929-10.573 4.804-23.893 10.963-31.929C17.188 185.399 36.46 182.665 52.34 180.47z" fill="#e38ece" stroke-width="none" opacity="1" stroke="none"></path><path id="SvgjsPath4487" d="M119.848 171.392c-4.863 2.82-8.981 5.588-11.713 9.481 6.567 0.362 11.421 12.099 12.734 13.695 -12.333-17.166-17-5.5-18.5 5.432 0.432-3.546 0.787-9.596 1.487-12.193 0.204-1.033 0.423-2.021 0.654-2.889l0.007 0.001c2.912-11.713 14.081-12.092 21.032-19.723 4.374-4.166 3.523-9.856 0.683-11.318 0.109-1.009 0.241-2.351 0.345-3.549 0.729 0.133 1.379 0.292 1.982 0.469C137.518 158.679 125.96 168.657 119.848 171.392zM78.965 171.392c4.864 2.82 10.812 6.162 13.536 9.717 -4.798-0.873-10.131 6.294-12.798 12.627 11.5-14.667 15-6.333 18.667 6.265 -0.431-3.545-1.524-9.596-2.224-12.193 -0.204-1.033-0.422-2.021-0.654-2.889l-0.006 0.001c-2.912-11.713-13.682-12.092-20.633-19.723 -4.374-4.166-3.622-9.856-0.781-11.318 -0.109-1.009-0.24-2.351-0.344-3.549 -0.729 0.133-1.379 0.292-1.982 0.469C64.238 159.967 73.472 168.06 78.965 171.392z" fill="#c553a9" stroke-width="none" opacity="1" stroke="none"></path><path id="SvgjsPath4488" d="M125.876 163.323c0.031-5.701-0.159-2.538 0.418-8.99C128.518 155.526 128.801 160.423 125.876 163.323zM74.139 162.784c-2.323-3.04-2.61-6.145-0.347-8.49C74.334 159.352 74.059 158.742 74.139 162.784z" fill="#b53b97" stroke-width="none" opacity="1" stroke="none"></path><path id="SvgjsPath4489" d="M147.624 176.915c-0.206-3.542-7.813-6.496-11.188-14.175 -2.417-5.47-0.123-11.734-10.065-12.741 -0.545 3.187-1.028 10.193-0.883 13.579 -5.038 5.423-12.831 6.826-17.785 12.657 -5.288 6.224-7.58 19.7-7.667 47.667l1.232-0.801c0 0 1.372-26.485 1.382-26.563 3.084-26.427 12.888-20.185 22.979-31.263 4.521-4.332 3.441-10.072 0.722-11.463 0.118-1.12 0.228-2.229 0.325-3.35 8.552 1.571 6.109 6.605 8.784 12.753 3.556 8.174 10.297 9.959 10.732 13.923 0.69 6.281-3.058 8.947-6.817 14.434 -5.913 8.559-7.28 12.925-8.101 16.308 -8.975-9.426-8.98-13.558-15.398-22.338 -6.844-9.366-11.339-4.974-13.226 10.996 0.194-2.625 3.77-17.175 8.043-14.651 4.939 2.878 9.791 15.108 15.561 21.886 1.539 1.823 3.521 3.652 5.345 5.182 3.407-11.897 16-24.465 16.408-30.205 19.695 5.556 53.439-0.145 56.441 55.963 -41.138 0.22-85.815-0.682-208.97 0.554 1.785-18.437 4.804-36.508 15.723-44.653 4.685-3.507 10.117-5.341 15.712-6.508 7.797-1.616 16.522-2.655 24.253-4.747 0.788 1 14.205 21.198 17.224 29.597 10.863-8.503 15.207-24.459 21.188-27.214 4.164-1.913 7.559 11.938 7.753 14.553 -1.63-16.891-6.95-22.418-17.024-4.923 -4.964 8.624-6.28 10.962-11.56 16.51 -2.12-8.994-16.895-25.954-16.253-30.662 0.634-4.646 6.314-3.363 10.098-13.244 2.122-5.54 1.652-11.648 10.708-13.455 0.098 1.167 0.217 2.32 0.336 3.486 -2.479 1.631-3.109 7.111 0.852 10.942 3.567 4.085 10.004 6.416 14.255 9.676 5.011 3.867 6.993 7.827 8.588 21.67 0.035 0.302 1.37 26.942 1.37 26.942l1.333 0.667c-0.667-27.833-3.335-44.568-8.721-49.258 -4.652-4.15-12.775-6.796-16.717-11.429 0.12-3.476-0.565-10.518-0.993-13.171 -9.009 0.918-9.264 6.638-11.196 11.632 -5.165 13.351-10.134 9.527-10.957 15.059 -0.077 0.517 0.042 0.906 0.167 1.594 -7.58 1.548-17.04 2.563-24.641 3.953 -11.343 2.071-22.045 8.058-26.925 19.452 -3.707 8.647-4.781 24.051-5.053 33.543 -0.011 0.068-0.011 0.147-0.011 0.215 0.152 0.012 0.314 0.012 0.466 0.012 130.475 1.387 208.449-0.578 209.534-0.578C205.369 181.568 176.202 183.902 147.624 176.915zM125.976 163.024c0.016-2.933 0.105-6.329 0.318-8.691C127.892 155.473 129.133 159.262 125.976 163.024zM74.088 162.593c-2.652-3.471-1.6-6.836-0.396-8C73.943 156.939 74.042 160.224 74.088 162.593z" fill="#a62586" stroke-width="none" opacity="1" stroke="none"></path></g><g id="svga-group-head" transform="rotate(-1e-7 100 150)"><g id="svga-group-ears-left" ><path id="SvgjsPath3223" d="M47.34 82.506c-1.378-2.405-9.403-6.675-11.855-6.501 -4.229 0.299-5.137 5.269-5.446 7.648 -0.609 4.696 0.645 10 1.485 13.201 0.687 2.615 2.874 7.578 4.214 9.883 1.197 2.062 4.145 5.792 5.733 7.525 1.398 1.529 4.73 4.311 7.248 3.632 2.769-0.744 6.015-3.945 6.239-5.312C56.165 105.172 50.926 88.763 47.34 82.506z" fill="#ffd0bc" stroke="#d17f5b" stroke-width="1.5" opacity="1"></path><path id="SvgjsPath3224" d="M42.903 99.38c-0.142-0.584 0.007-1.569 0.151-2.521 0.131-0.868 0.255-1.686 0.18-2.265 -0.284-2.169-1.888-6.29-2.936-8.524 -1.206-2.568-3.157-5.803-5.602-6.639 -1.011-0.346-2.073-0.522-2.145-0.241 -0.611 1.943-0.563 7.341-0.212 11.338 0.987 11.242 10.375 19.34 11.872 21.045 0.276 0.314 0.566 0.501 0.637 0.426 0.072-0.076-0.1-0.388-0.375-0.704 -1.477-1.692-8.314-8.684-9.27-13.098 -1.012-4.685 3-12.386 3.776-13.855 0.397 0.69 0.732 1.352 0.991 1.904 0.204 0.434 0.429 0.941 0.66 1.489 -0.456 0.767-3.656 6.36-2.489 10.836 0.431 1.651 2.379 3.778 3.67 4.362 0.71 0.321 0.978 0.801 1.287 1.355 0.359 0.645 0.765 1.374 1.946 1.903 0.24 0.108 0.457 0.151 0.649 0.151 0.333 0 0.586-0.135 0.773-0.295 0.019 0.282-0.349 2.52-0.357 2.853 -0.012 0.431 0.045 0.787 0.146 0.796 0.101 0.008 0.207-0.334 0.221-0.766 0.016-0.529 0.379-3.061 0.289-3.372 -0.264-0.923-1.073-1.964-1.93-3.068C43.994 101.407 43.122 100.284 42.903 99.38zM34.428 95.416c-2.316-7.184 1.456-13.479 1.977-14.464 0.906 0.826 1.704 1.932 2.354 3.015C38.286 84.83 34.526 90.584 34.428 95.416zM45.187 105.831c-1.069-0.479-1.427-1.12-1.774-1.742 -0.313-0.562-0.637-1.143-1.458-1.515 -0.179-0.082-0.375-0.204-0.576-0.346 -2.646-6.304 0.289-9.059 1.025-9.625 0.226 0.771 0.394 1.478 0.468 2.045 0.067 0.521-0.058 1.348-0.179 2.148 -0.149 0.992-0.305 2.018-0.144 2.681 0.239 0.989 1.137 2.146 2.005 3.263 0.771 0.993 1.562 2.015 1.832 2.849C46.271 105.757 45.905 106.155 45.187 105.831z" fill="#d17f5b" stroke-width="none" opacity="1"></path></g><g id="svga-group-ears-right" ><path id="SvgjsPath3225" d="M152.398 82.506c1.377-2.405 9.402-6.675 11.855-6.501 4.229 0.299 5.137 5.269 5.445 7.648 0.609 4.696-0.645 10-1.484 13.201 -0.688 2.615-2.875 7.578-4.215 9.883 -1.197 2.062-4.145 5.792-5.732 7.525 -1.398 1.529-4.73 4.311-7.248 3.632 -2.77-0.744-6.016-3.945-6.238-5.312C143.574 105.172 148.813 88.763 152.398 82.506z" fill="#ffd0bc" stroke="#d17f5b" stroke-width="1.5" opacity="1"></path><path id="SvgjsPath3226" d="M154.902 102.491c-0.855 1.104-1.666 2.146-1.93 3.068 -0.09 0.312 0.273 2.843 0.289 3.372 0.014 0.432 0.119 0.773 0.221 0.766 0.102-0.009 0.158-0.365 0.146-0.796 -0.01-0.333-0.377-2.57-0.357-2.853 0.188 0.16 0.439 0.295 0.771 0.295 0.193 0 0.41-0.043 0.65-0.151 1.182-0.53 1.588-1.259 1.945-1.903 0.311-0.555 0.578-1.034 1.287-1.355 1.291-0.584 3.24-2.711 3.67-4.362 1.168-4.476-2.031-10.07-2.488-10.836 0.23-0.548 0.457-1.056 0.66-1.489 0.26-0.552 0.594-1.214 0.99-1.904 0.777 1.469 4.789 9.17 3.777 13.855 -0.955 4.415-7.793 11.406-9.27 13.098 -0.275 0.316-0.447 0.628-0.375 0.704 0.072 0.075 0.361-0.111 0.637-0.426 1.498-1.705 10.885-9.803 11.873-21.045 0.35-3.997 0.396-9.395-0.213-11.338 -0.072-0.281-1.135-0.104-2.145 0.241 -2.445 0.836-4.396 4.071-5.604 6.639 -1.047 2.234-2.65 6.354-2.936 8.524 -0.076 0.579 0.049 1.397 0.18 2.265 0.145 0.951 0.293 1.936 0.15 2.521C156.617 100.284 155.744 101.407 154.902 102.491zM160.979 83.966c0.65-1.083 1.449-2.188 2.355-3.015 0.52 0.986 4.291 7.28 1.977 14.464C165.211 90.584 161.453 84.83 160.979 83.966zM153.352 105.59c0.271-0.834 1.063-1.856 1.832-2.849 0.869-1.118 1.766-2.274 2.006-3.263 0.16-0.663 0.006-1.689-0.145-2.681 -0.121-0.8-0.246-1.627-0.178-2.148 0.074-0.567 0.242-1.273 0.467-2.045 0.736 0.566 3.672 3.321 1.025 9.625 -0.201 0.142-0.396 0.264-0.576 0.346 -0.82 0.372-1.145 0.953-1.457 1.515 -0.348 0.622-0.705 1.263-1.775 1.742C153.834 106.155 153.467 105.757 153.352 105.59z" fill="#d17f5b" stroke-width="none" opacity="1"></path></g><g id="svga-group-faceshape-wrap" ><g id="svga-group-faceshape-single" ><path id="SvgjsPath3136" d="M144.004 126.306c-6.87 10.846-23.072 30.329-34.468 34.563 -4.474 1.663-14.594 1.663-19.067 0 -11.396-4.235-27.596-23.719-34.467-34.563 -6.753-10.657-14.852-48.287-14.863-48.341 -1.3-4.961-1.996-10.168-2.004-15.538C39.082 28.614 66.289 1.169 99.907 1.116c33.621-0.053 60.913 27.306 60.963 61.119 0.009 5.37-0.669 10.579-1.952 15.544C158.901 77.832 150.78 115.606 144.004 126.306z" fill="#ffd0bc" stroke-width="none" opacity="1"></path><path id="SvgjsPath3137" d="M110.152 1.978c26.994 6.303 47.097 30.644 47.052 59.708 -0.009 5.369-0.704 10.577-2.004 15.537 -0.012 0.054-7.377 37.684-14.13 48.341 -6.872 10.844-22.339 29.588-33.734 33.823 -1.476 0.549-5.027 1.103-7.334 1.103 -2.307 0-5.857-0.554-7.333-1.103 -11.396-4.235-26.863-22.979-33.734-33.823 -6.753-10.657-14.119-48.287-14.13-48.341 -1.3-4.96-1.996-10.168-2.004-15.537C42.756 32.622 62.857 8.281 89.853 1.978 61.03 6.845 39.087 32.061 39.134 62.427c0.008 5.369 0.704 10.576 2.004 15.538 0.012 0.054 8.11 37.684 14.863 48.341 6.871 10.845 23.072 30.328 34.467 34.563 2.239 0.833 5.889 1.247 9.537 1.244 3.646 0.001 7.292-0.411 9.53-1.244 11.396-4.235 27.596-23.719 34.468-34.563 6.753-10.657 14.852-48.287 14.862-48.341 1.3-4.961 1.996-10.168 2.004-15.538C160.918 32.061 138.975 6.845 110.152 1.978z" fill="#f7c1aa" stroke-width="none" opacity="1"></path><path id="SvgjsPath3138" d="M144.004 126.306c-6.87 10.846-23.072 30.329-34.468 34.563 -4.474 1.663-14.594 1.663-19.067 0 -11.396-4.235-27.596-23.719-34.467-34.563 -6.753-10.657-14.852-48.287-14.863-48.341 -1.3-4.961-1.996-10.168-2.004-15.538C39.082 28.614 66.289 1.169 99.907 1.116c33.621-0.053 60.913 27.306 60.963 61.119 0.009 5.37-0.669 10.579-1.952 15.544C158.901 77.832 150.78 115.606 144.004 126.306z" fill="none" stroke="#d17f5b" stroke-width="1.5" opacity="1"></path></g></g><g id="svga-group-mouth-single" ><path id="SvgjsPath3184" d="M100.2 142.947c-2.832 0.144-3.644-2.753-3.644-2.753s3.931 0.565 6.991-0.353C103.548 139.842 102.692 142.822 100.2 142.947z" fill="url(#SvgjsLinearGradient3185)" opacity="1"></path><path id="SvgjsPath3188" d="M100.488 140.76c-1.984 0.1-3.765-0.077-3.877-0.089 -0.138-0.014-0.238-0.136-0.224-0.272 0.015-0.138 0.143-0.233 0.274-0.224 0.041 0.003 4.096 0.405 6.738-0.337 0.131-0.032 0.271 0.041 0.309 0.174s-0.04 0.27-0.173 0.308C102.601 140.582 101.517 140.708 100.488 140.76z" fill="#d17f5b" stroke-width="none" opacity="1"></path><path id="SvgjsPath3189" d="M82.5 130.299c0 0 12.532 1.486 16.718 1.499 4.553 0.012 19.282-1.499 19.282-1.499 -4.258 3.534-8.943 6.932-19.555 6.999C89.453 137.359 87.021 133.912 82.5 130.299z" fill="#ffffff" stroke-width="none" opacity="1"></path><path id="SvgjsPath3190" d="M82.5 130.299c0 0 12.532 1.486 16.718 1.499 4.553 0.012 19.282-1.499 19.282-1.499 -4.258 3.534-8.943 6.932-19.555 6.999C89.453 137.359 87.021 133.912 82.5 130.299z" fill="none" stroke="#d17f5b" stroke-width="0.75" opacity="1"></path></g><g id="svga-group-eyes-left" ><g id="svga-group-eyesback-left"><path id="SvgjsPath4141" d="M83.071 89.125c-3.293-0.784-4.969 1.059-9.809 1.166 -8.057 0.177-9.938-0.618-11.199-2.638 -0.523-0.837-1.023-1.928-1.264-2.601l-0.1-4.149c1.328-3.949 19.541-4.352 25.9 1.784 0.287 0.666 0.433 1.287 0.465 1.867 -0.19 0.958-0.512 1.878-0.947 2.749C85.411 88.113 84.355 88.729 83.071 89.125z" fill="url(#SvgjsRadialGradient4142)" opacity="1"></path></g><g id="svga-group-eyesiriswrapper-left" transform="translate(0.25 0.25)"><g id="svga-group-eyesiriscontrol-left" ><g id="svga-group-eyesiris-left" ><path id="SvgjsPath3403" d="M79.788 85.588c-0.869 3.192-4.162 5.073-7.361 4.196 -3.197-0.876-5.084-4.178-4.214-7.371 0.869-3.195 4.168-5.076 7.365-4.198C78.772 79.09 80.659 82.392 79.788 85.588z" fill="#7b5c33" stroke="#4d3009" stroke-width="0.5" opacity="1"></path><path id="SvgjsPath3404" d="M79.643 84.371c-0.441 3.545-3.072 5.392-5.952 5.199 -2.658-0.179-5.034-2.14-5.254-5.525 0.919-0.264 2.14 0.165 3.211 0.001 -0.003 0.039-0.017 0.074-0.018 0.113 -0.084 1.3 0.958 2.433 2.329 2.525 1.374 0.092 2.556-0.892 2.641-2.191 0.009-0.169-0.001-0.336-0.027-0.496C77.527 84.141 78.693 83.999 79.643 84.371z" fill="#8a6d47" stroke-width="none" opacity="1"></path><path id="SvgjsPath3405" d="M74.867 81.998c-1.319-0.377-2.667 0.376-3.007 1.691 -0.341 1.308 0.453 2.678 1.771 3.056 1.322 0.379 2.669-0.375 3.011-1.684C76.986 83.745 76.188 82.376 74.867 81.998z" fill="#000000" stroke-width="none" opacity="0.9"></path><path id="SvgjsPath3406" d="M74.867 81.998c-1.319-0.377-2.667 0.376-3.007 1.691 -0.341 1.308 0.453 2.678 1.771 3.056 1.322 0.379 2.669-0.375 3.011-1.684C76.986 83.745 76.188 82.376 74.867 81.998z" fill="none" stroke="#4d3009" stroke-width="0.75" opacity="1"></path><path id="SvgjsPath3407" d="M71.16 87.657c-0.125 0.437-0.806 0.251-0.681-0.188 0.121-0.423 0.446-0.683 0.653-1.055 0.221-0.398 0.831-0.042 0.609 0.356C71.571 87.078 71.257 87.314 71.16 87.657L71.16 87.657zM72.246 86.96c-0.188 0.219-0.434 1.03-0.54 1.295 -0.17 0.422 0.513 0.604 0.681 0.188 0.058-0.145 0.256-0.863 0.359-0.983C73.04 87.116 72.543 86.614 72.246 86.96L72.246 86.96zM73.716 89.048c0.369-0.425 0.332-0.912 0.324-1.441 -0.007-0.455-0.713-0.455-0.706 0 0.004 0.293 0.092 0.701-0.117 0.942C72.92 88.891 73.417 89.392 73.716 89.048L73.716 89.048zM74.437 87.519c0.005 0.438 0.06 0.865 0.189 1.285 0.134 0.434 0.815 0.249 0.681-0.188 -0.112-0.362-0.159-0.719-0.164-1.097C75.138 87.064 74.432 87.063 74.437 87.519L74.437 87.519z" fill="#ffffff" stroke-width="none" opacity="0.5"></path><path id="SvgjsPath3408" d="M78.197 82.971c-0.695 0.417-1.74 0.042-2.333-0.839 -0.592-0.881-0.503-1.934 0.193-2.349 0.694-0.419 1.742-0.043 2.33 0.838C78.979 81.502 78.893 82.554 78.197 82.971z" fill="#ffffff" stroke-width="none" opacity="0.8"></path></g></g></g><g id="svga-group-eyesfront-left"><path id="SvgjsPath4166" d="M53.729 84.098c-0.382 3.304 9.854 22.004 20.071 22.004s19.5-5.292 19.5-22.003c0-17.789-9.283-22.001-19.5-22.001S55.626 67.704 53.729 84.098zM60.8 85.053l-0.1-4.149c1.328-3.949 19.541-4.352 25.9 1.784 1.396 3.231-0.409 5.477-3.529 6.438 -3.293-0.784-4.969 1.059-9.809 1.166 -8.057 0.177-9.938-0.618-11.199-2.638C61.54 86.816 61.04 85.726 60.8 85.053z" fill="#ffd0bc" stroke-width="none" opacity="1"></path><path id="SvgjsPath4167" d="M59.698 82.412c0.023 7.534 7.646 13.604 17.038 13.566 9.389-0.043 16.985-6.179 16.961-13.713 -0.023-7.533-7.647-13.605-17.04-13.566C67.265 68.743 59.673 74.878 59.698 82.412zM60.8 85.053l-0.1-4.149c1.328-3.949 19.541-4.352 25.9 1.784 1.396 3.231-0.409 5.477-3.529 6.438 -3.293-0.784-4.969 1.059-9.809 1.166 -8.057 0.177-9.938-0.618-11.199-2.638C61.54 86.816 61.04 85.726 60.8 85.053z" fill="url(#SvgjsRadialGradient4168)" opacity="1"></path><path id="SvgjsPath4172" d="M62.063 87.654c-0.523-0.837-1.023-1.928-1.264-2.601l-0.1-4.149c1.328-3.949 19.541-4.352 25.9 1.784 1.396 3.231-0.409 5.477-3.529 6.438 -3.293-0.784-4.969 1.059-9.809 1.166C65.206 90.469 63.324 89.673 62.063 87.654z" fill="url(#SvgjsRadialGradient4173)" opacity="1"></path><path id="SvgjsPath4176" d="M89.465 81.193c-9.617-5.761-16.701-6.128-28.117-5.394C70.877 74.298 81.852 75.387 89.465 81.193z" fill="#d17f5b" stroke-width="none" opacity="1"></path><path id="SvgjsPath4177" d="M88.23 85.283c-3.24-8.315-25.943-8.364-27.431-4.181v3.895c-1.021-1.539-1.047-1.633-1.483-3.404l-2.195 0.746c0 0 2.746-3.873 5.299-4.381C84.606 73.539 88.04 83.949 88.23 85.283zM84.743 89.42c-4.625-1.98-5.94 0.378-11.563 0.495 -8.004 0.168-9.567-0.766-11.125-2.476 0.813 2.091 1.375 3.085 10.875 3.027C78.306 90.433 81.243 88.212 84.743 89.42z" fill="#2c1630" stroke-width="none" opacity="1"></path></g></g><g id="svga-group-eyes-right" ><g id="svga-group-eyesback-right"><path id="SvgjsPath4149" d="M116.529 89.125c3.293-0.784 4.969 1.059 9.809 1.166 8.057 0.177 9.938-0.618 11.199-2.638 0.523-0.837 1.023-1.928 1.264-2.601l0.1-4.149c-1.328-3.949-19.541-4.352-25.9 1.784 -0.287 0.666-0.433 1.287-0.465 1.867 0.19 0.958 0.512 1.878 0.947 2.749C114.189 88.113 115.245 88.729 116.529 89.125z" fill="url(#SvgjsRadialGradient4150)" opacity="1"></path></g><g id="svga-group-eyesiriswrapper-right" transform="translate(-0.25 0.25)"><g id="svga-group-eyesiriscontrol-right" ><g id="svga-group-eyesiris-right" ><path id="SvgjsPath3409" d="M131.788 85.588c-0.869 3.192-4.162 5.073-7.362 4.196 -3.196-0.876-5.084-4.178-4.214-7.371 0.869-3.195 4.169-5.076 7.365-4.198C130.772 79.09 132.658 82.392 131.788 85.588z" fill="#7b5c33" stroke="#4d3009" stroke-width="0.5" opacity="1"></path><path id="SvgjsPath3410" d="M131.643 84.371c-0.44 3.545-3.072 5.392-5.951 5.199 -2.657-0.179-5.034-2.14-5.255-5.525 0.919-0.264 2.141 0.165 3.212 0.001 -0.004 0.039-0.017 0.074-0.019 0.113 -0.085 1.3 0.958 2.433 2.329 2.525 1.374 0.092 2.555-0.892 2.64-2.191 0.009-0.169-0.001-0.336-0.026-0.496C129.527 84.141 130.693 83.999 131.643 84.371z" fill="#8a6d47" stroke-width="none" opacity="1"></path><path id="SvgjsPath3411" d="M126.867 81.998c-1.319-0.377-2.666 0.376-3.007 1.691 -0.341 1.308 0.453 2.678 1.771 3.056 1.322 0.379 2.669-0.375 3.011-1.684C128.986 83.745 128.188 82.376 126.867 81.998z" fill="#000000" stroke-width="none" opacity="0.9"></path><path id="SvgjsPath3412" d="M126.867 81.998c-1.319-0.377-2.666 0.376-3.007 1.691 -0.341 1.308 0.453 2.678 1.771 3.056 1.322 0.379 2.669-0.375 3.011-1.684C128.986 83.745 128.188 82.376 126.867 81.998z" fill="none" stroke="#4d3009" stroke-width="0.75" opacity="1"></path><path id="SvgjsPath3413" d="M123.16 87.657c-0.125 0.437-0.806 0.251-0.682-0.188 0.121-0.423 0.447-0.683 0.654-1.055 0.22-0.398 0.83-0.042 0.609 0.356C123.571 87.078 123.257 87.314 123.16 87.657L123.16 87.657zM124.246 86.96c-0.188 0.219-0.434 1.03-0.54 1.295 -0.171 0.422 0.513 0.604 0.681 0.188 0.059-0.145 0.256-0.863 0.358-0.983C125.04 87.116 124.543 86.614 124.246 86.96L124.246 86.96zM125.716 89.048c0.369-0.425 0.332-0.912 0.324-1.441 -0.007-0.455-0.713-0.455-0.706 0 0.004 0.293 0.092 0.701-0.117 0.942C124.92 88.891 125.418 89.392 125.716 89.048L125.716 89.048zM126.438 87.519c0.005 0.438 0.059 0.865 0.188 1.285 0.135 0.434 0.815 0.249 0.681-0.188 -0.112-0.362-0.159-0.719-0.164-1.097C127.138 87.064 126.432 87.063 126.438 87.519L126.438 87.519z" fill="#ffffff" stroke-width="none" opacity="0.5"></path><path id="SvgjsPath3414" d="M130.197 82.971c-0.695 0.417-1.74 0.042-2.333-0.839 -0.592-0.881-0.504-1.934 0.192-2.349 0.695-0.419 1.742-0.043 2.33 0.838C130.979 81.502 130.893 82.554 130.197 82.971z" fill="#ffffff" stroke-width="none" opacity="0.8"></path></g></g></g><g id="svga-group-eyesfront-right"><path id="SvgjsPath4187" d="M125.801 62.098c-10.217 0-19.5 4.212-19.5 22.001 0 16.711 9.283 22.003 19.5 22.003s19.891-18.032 20.07-22.004C146.617 67.611 136.018 62.098 125.801 62.098zM137.537 87.654c-1.261 2.02-3.143 2.815-11.199 2.638 -4.84-0.107-6.516-1.95-9.809-1.166 -3.12-0.961-4.925-3.207-3.529-6.438 6.359-6.136 24.572-5.733 25.9-1.784l-0.1 4.149C138.561 85.726 138.061 86.816 137.537 87.654z" fill="#ffd0bc" stroke-width="none" opacity="1"></path><path id="SvgjsPath4188" d="M122.943 68.699c-9.393-0.04-17.016 6.033-17.039 13.566 -0.025 7.535 7.572 13.67 16.961 13.713 9.391 0.037 17.014-6.033 17.037-13.566C139.928 74.878 132.336 68.743 122.943 68.699zM137.537 87.654c-1.261 2.02-3.143 2.815-11.199 2.638 -4.84-0.107-6.516-1.95-9.809-1.166 -3.12-0.961-4.925-3.207-3.529-6.438 6.359-6.136 24.572-5.733 25.9-1.784l-0.1 4.149C138.561 85.726 138.061 86.816 137.537 87.654z" fill="url(#SvgjsRadialGradient4189)" opacity="1"></path><path id="SvgjsPath4193" d="M137.537 87.654c0.523-0.837 1.023-1.928 1.264-2.601l0.1-4.149c-1.328-3.949-19.541-4.352-25.9 1.784 -1.396 3.231 0.409 5.477 3.529 6.438 3.293-0.784 4.969 1.059 9.809 1.166C134.395 90.469 136.276 89.673 137.537 87.654z" fill="url(#SvgjsRadialGradient4194)" opacity="1"></path><path id="SvgjsPath4197" d="M110.136 81.193c9.617-5.761 16.701-6.128 28.117-5.394C128.724 74.298 117.749 75.387 110.136 81.193z" fill="#d17f5b" stroke-width="none" opacity="1"></path><path id="SvgjsPath4198" d="M137.181 77.957c2.553 0.508 5.299 4.381 5.299 4.381l-2.195-0.746c-0.437 1.771-0.463 1.865-1.483 3.404v-3.895c-1.487-4.183-24.19-4.134-27.431 4.181C111.561 83.949 114.994 73.539 137.181 77.957zM126.67 90.467c9.5 0.058 10.063-0.937 10.875-3.027 -1.558 1.71-3.121 2.644-11.125 2.476 -5.622-0.117-6.938-2.476-11.563-0.495C118.357 88.212 121.295 90.433 126.67 90.467z" fill="#2c1630" stroke-width="none" opacity="1"></path></g></g><g id="svga-group-facehighlight-single" ><path id="SvgjsPath2885" d="M141 113.974c0.035 22.622-18.292 40.994-40.938 41.025 -22.642 0.037-41.028-18.273-41.063-40.9 -0.035-22.62 18.292-41.064 40.937-41.1C122.579 72.964 140.967 91.349 141 113.974z" fill="url(#SvgjsRadialGradient2886)" opacity="1"></path><path id="SvgjsPath2889" d="M137.5 53.999c0 20.711-16.789 37.5-37.499 37.5 -20.711 0-37.501-16.789-37.501-37.5s16.79-37.5 37.501-37.5C120.711 16.499 137.5 33.288 137.5 53.999z" fill="url(#SvgjsRadialGradient2890)" opacity="1"></path></g><g id="svga-group-eyebrows-left" ><path id="SvgjsPath4225" d="M53.149 74.996c9.743-15.115 36.491 5.148 38.018-1.191 0.299-1.271-0.407-2.015-1.564-2.492C75.982 65.807 57.955 61.18 53.149 74.996z" fill="#2a232b" stroke-width="none" opacity="1"></path></g><g id="svga-group-eyebrows-right" ><path id="SvgjsPath4226" d="M146.851 74.996c-9.743-15.115-36.491 5.148-38.018-1.191 -0.299-1.271 0.407-2.015 1.564-2.492C124.018 65.807 142.045 61.18 146.851 74.996z" fill="#2a232b" stroke-width="none" opacity="1"></path></g><g id="svga-group-nose-single" ><path id="SvgjsPath3196" d="M96.831 88.524c0 0-1.399 11.117-2.026 13.281 -1.379 4.752-6.168 11.417-5.239 14.429 1.859 6.022 7.537 4.493 10.524 4.471 2.763-0.022 8.072 1.552 9.162-2.37 0.352-1.266-0.441-4.466-0.441-4.466s-2.644 3.112-8.875 2.767c-1.778-0.099-4.671-2.096-4.704-4.912 -0.043-3.817 1.802-7.035 2.205-10.824C97.741 98.022 96.831 88.524 96.831 88.524z" fill="#f0b399" stroke-width="none" opacity="1"></path><path id="SvgjsPath3197" d="M105.194 118.969c1.075 0 1.366 0.326 1.366 0.729 0 0.404-0.335 1.026-1.366 0.73 -1.134-0.323-3.113-0.175-3.113-0.175S104.117 118.969 105.194 118.969zM94.922 118.969c-1.077 0.001-1.366 0.328-1.366 0.733 -0.001 0.403 0.323 0.983 1.366 0.729 1.15-0.282 3.112-0.175 3.112-0.175S95.999 118.973 94.922 118.969zM108.81 113.869c0 0 1.489 1.933 1.18 3.975 -0.301 1.983-3.31 2.861-3.31 2.861s2.089-1.516 2.342-3.356C109.14 116.486 108.81 113.869 108.81 113.869zM90.427 111.883c0 0-1.086 2.704-0.772 4.352 0.571 2.976 3.704 4.164 3.704 4.164s-1.955-2.039-2.65-3.842C89.948 114.587 90.427 111.883 90.427 111.883z" fill="#d17f5b" stroke-width="none" opacity="1"></path><path id="SvgjsPath3198" d="M105.141 115.311c1.043-0.889 1.148-1.396 0.932-1.729 -0.215-0.334-0.841-0.545-1.714 0.528 -0.963 1.18-3.056 2.054-3.056 2.054S104.098 116.198 105.141 115.311z" fill="#ffe2d6" stroke-width="none" opacity="1"></path></g><g id="svga-group-beardwrap" ><g id="svga-group-beard-single" transform="matrix(1.05000032 0 0 1.05000032 -5.00028205500611 -7.018044754981702) translate(0 -0.9999999999999999)"><path id="SvgjsPath4398" d="M71.7 128.57c0.26 1.18 0.08 1.62-0.33 2.5C71.68 129.72 71.69 129.7 71.7 128.57zM98.59 157.65c-0.02-1.21-0.44-1.85-1.56-2.22C97.93 156.04 98.36 156.59 98.59 157.65zM94.8 156.56c-0.05-1.04-0.28-1.67-1.1-2.33C94.26 155.02 94.5 155.56 94.8 156.56zM90.87 155.24c0.08 0.46 0.74 1.31 1.33 1.5C91.71 156.46 90.87 155.24 90.87 155.24zM87.2 153.57c0.08 0.24 0.68 1.88 0.83 1.67C88.04 155.24 87.08 153.22 87.2 153.57zM89.7 150.74c-0.25 1-0.3 1.59-0.17 2.67C89.63 152.79 89.71 151.23 89.7 150.74zM91.87 147.9c-0.09 0.77-0.1 1.57 0 2.33C91.96 149.57 91.98 148.8 91.87 147.9zM93.04 152.74c0.66-0.85 0.89-1.29 1.17-2.33C94 150.74 93.19 152.38 93.04 152.74zM96.7 150.4c-0.08 1.28 0.04 1.85 0.5 2.83C96.84 151.54 96.96 152.13 96.7 150.4zM95.2 148.9c0.42-0.82 0.57-1.29 0.67-2.17C95.69 147.17 95.3 148.49 95.2 148.9zM99.04 147.4c-0.07 0.62 0.05 1.77 0.67 1.67C99.24 149.15 99.1 147.86 99.04 147.4zM95.2 144.9c0.32-0.74 0.56-1.58 0.67-2.33C95.54 143.32 95.32 144.13 95.2 144.9zM88.2 146.74c-0.29 0.88-0.39 1.45-0.33 2.5C87.97 148.78 88.17 147.23 88.2 146.74zM85.37 153.07c0.51-1 0.7-1.62 0.83-2.67C85.97 150.96 85.52 152.4 85.37 153.07zM83.04 150.57c-0.54 0.6 0.17 1.67 0.17 1.67C83.19 151.52 82.81 151.17 83.04 150.57zM84.04 144.8c0-0.06-0.12 0.23 0.16 2.6 0.06-2.55-0.17-2.93-0.17-2.5C84.04 144.9 84.04 144.86 84.04 144.8zM80.2 146.9c0.08 1.47 0.03 2.06 0.33 3C80.43 147.77 80.47 147.9 80.2 146.9zM77.7 147.07c-0.18 0.83-0.21 1.34 0.33 2C77.67 148.33 77.7 147.92 77.7 147.07zM73.54 144.9c0.02-0.51-0.01-1.11-0.15-1.68C73.39 143.13 73.32 143.89 73.54 144.9zM75.26 145.49c0 0 0.61-2.92 0.61-2.92C75.45 143.28 75.26 145.49 75.26 145.49zM78.7 141.9c-0.55 0.52-0.86 1.66-0.83 2.33C77.98 143.79 78.41 142.34 78.7 141.9zM81.37 144.74c0.25-1.07 0.3-1.7 0.17-2.83C81.43 142.58 81.36 144.19 81.37 144.74zM81.2 136.24c-0.2 0.65-0.24 0.95-0.17 1.67C81.05 137.83 81.2 136.3 81.2 136.24zM78.54 138.9c0.46-0.63 0-2.33 0-2.33S78.67 138.6 78.54 138.9zM74.87 137.74c0.17 0.83 0.46 1.74 0.83 2.5C75.54 139.41 75.25 138.53 74.87 137.74zM71.54 137.74c-0.3 1.81-0.06 2.33 0.33 3.33C71.63 139.59 71.56 139.4 71.54 137.74zM69.04 135.74c-0.4 0.64-0.54 2.16 0.17 3C68.8 137.97 68.84 136.33 69.04 135.74zM69.87 130.57c0 0-0.5 0.94-0.5 2.33C69.55 132.11 69.75 131.2 69.87 130.57zM73.04 133.07c0 0-0.83 0.06-0.5 2.5C72.91 132.51 73.04 133.07 73.04 133.07zM77.2 134.07c0.27-0.84 0.45-1.75 0.5-2.67C77.42 132.26 77.26 133.17 77.2 134.07zM75.2 127.9c-0.46 1.05-0.54 1.45-0.5 2.5C74.7 130.4 75.2 127.9 75.2 127.9zM79.2 126.24c-0.67 0.58-0.88 2.11-0.83 3C78.83 126.52 79.2 126.24 79.2 126.24zM83.7 126.4c-0.8 0.64-1.12 1.1-1.33 2.33C82.76 127.78 82.85 127.44 83.7 126.4zM86.54 129.07c0.64-0.63 1.5-3.33 1.5-3.33C87.86 125.39 86.75 128.72 86.54 129.07zM91.54 125.74c-0.56 0.13-1.43 2.64-1.67 3.17C90.17 128.48 91.54 125.74 91.54 125.74zM94.7 125.57c-0.48 0.99-0.74 1.51-1 2.67C94.18 127.29 94.41 126.51 94.7 125.57zM98.7 125.07c-0.76 1.71-0.43 1.22-1.33 3C97.94 127.36 98.37 126.74 98.7 125.07zM128.3 128.57c-0.26 1.18-0.08 1.62 0.33 2.5C128.32 129.72 128.31 129.7 128.3 128.57zM103.46 155.24c-1.12 0.37-1.49 0.68-1.5 1.89C102.19 156.06 102.56 155.84 103.46 155.24zM106.32 154.71c-0.82 0.66-1.14 1.49-1.19 2.53C105.43 156.24 105.77 155.49 106.32 154.71zM107.8 156.74c0.59-0.19 1.26-1.04 1.33-1.5C109.13 155.24 108.29 156.46 107.8 156.74zM111.96 155.24c0.15 0.21 0.75-1.42 0.83-1.67C112.92 153.22 111.96 155.24 111.96 155.24zM110.46 153.4c0.13-1.08 0.08-1.67-0.17-2.67C110.29 151.23 110.37 152.79 110.46 153.4zM108.13 150.24c0.1-0.77 0.09-1.57 0-2.33C108.02 148.8 108.04 149.57 108.13 150.24zM105.8 150.4c0.28 1.04 0.51 1.49 1.17 2.33C106.81 152.38 106 150.74 105.8 150.4zM102.8 153.24c0.46-0.99 0.58-1.55 0.5-2.83C103.04 152.13 103.16 151.54 102.8 153.24zM104.13 146.74c0.1 0.88 0.24 1.35 0.67 2.17C104.7 148.49 104.31 147.17 104.13 146.74zM101.3 148.07c0.61 0.1 0.74-1.05 0.67-1.67C101.9 146.86 101.76 148.15 101.3 148.07zM104.13 142.57c0.11 0.75 0.35 1.59 0.67 2.33C104.68 144.13 104.46 143.32 104.13 142.57zM112.13 149.24c0.06-1.05-0.04-1.62-0.33-2.5C111.83 147.23 112.03 148.78 112.13 149.24zM113.8 150.4c0.13 1.04 0.33 1.67 0.83 2.67C114.48 152.4 114.03 150.96 113.8 150.4zM116.8 152.24c0 0 0.71-1.06 0.17-1.67C117.19 151.17 116.81 151.52 116.8 152.24zM115.96 144.9c0-0.43-0.22-0.05-0.17 2.5 0.28-2.37 0.16-2.66 0.16-2.6C115.96 144.86 115.96 144.9 115.96 144.9zM119.46 149.9c0.3-0.94 0.25-1.53 0.33-3C119.53 147.9 119.57 147.77 119.46 149.9zM121.96 149.07c0.54-0.66 0.51-1.17 0.33-2C122.3 147.92 122.33 148.33 121.96 149.07zM126.61 143.23c-0.14 0.57-0.17 1.17-0.15 1.68C126.68 143.89 126.61 143.13 126.61 143.23zM124.13 142.57c0 0 0.61 2.92 0.61 2.92S124.55 143.28 124.13 142.57zM122.13 144.24c0.03-0.67-0.29-1.81-0.83-2.33C121.59 142.34 122.02 143.79 122.13 144.24zM118.46 141.9c-0.14 1.13-0.09 1.76 0.17 2.83C118.64 144.19 118.57 142.58 118.46 141.9zM118.96 137.9c0.07-0.72 0.03-1.02-0.17-1.67C118.8 136.3 118.95 137.83 118.96 137.9zM121.46 136.57c0 0-0.46 1.7 0 2.33C121.33 138.6 121.46 136.57 121.46 136.57zM124.3 140.24c0.37-0.76 0.67-1.67 0.83-2.5C124.75 138.53 124.46 139.41 124.3 140.24zM128.13 141.07c0.4-1 0.64-1.53 0.33-3.33C128.44 139.4 128.37 139.59 128.13 141.07zM130.8 138.74c0.71-0.84 0.57-2.36 0.17-3C131.16 136.33 131.2 137.97 130.8 138.74zM130.63 132.9c0-1.4-0.5-2.33-0.5-2.33C130.25 131.2 130.45 132.11 130.63 132.9zM127.46 135.57c0.33-2.44-0.5-2.5-0.5-2.5S127.09 132.51 127.46 135.57zM122.3 131.4c0.05 0.91 0.23 1.83 0.5 2.67C122.74 133.17 122.58 132.26 122.3 131.4zM125.3 130.4c0.04-1.05-0.04-1.45-0.5-2.5C124.8 127.9 125.3 130.4 125.3 130.4zM121.63 129.24c0.05-0.89-0.17-2.42-0.83-3C120.8 126.24 121.17 126.52 121.63 129.24zM117.63 128.74c-0.21-1.24-0.53-1.7-1.33-2.33C117.15 127.44 117.24 127.78 117.63 128.74zM111.96 125.74c0 0 0.86 2.7 1.5 3.33C113.25 128.72 112.14 125.39 111.96 125.74zM110.13 128.9c-0.24-0.53-1.1-3.04-1.67-3.17C108.46 125.74 109.83 128.48 110.13 128.9zM106.3 128.24c-0.26-1.15-0.52-1.68-1-2.67C105.59 126.51 105.82 127.29 106.3 128.24zM102.63 128.07c-0.91-1.78-0.57-1.29-1.33-3C101.63 126.74 102.05 127.36 102.63 128.07zM100.51 151.66c-1.02 1.58-0.98 2.27-0.95 3.27C99.85 153.5 99.83 153.51 100.51 151.66zM97.93 142.95c0.51 1.42 0.57 1.57 0.82 2.59C98.72 144.45 98.5 143.87 97.93 142.95zM100.79 145.08c0.25-1.02 0.78-0.71 1.29-2.13C101.5 143.87 100.81 144 100.79 145.08z" fill="#2a232b" stroke-width="none" opacity="1"></path></g></g><g id="svga-group-mustache-single" ><path id="SvgjsPath4395" d="M100,18.13L100,18.13L100,18.13L100,18.13z" fill="#2a232b" stroke-width="none" opacity="1"></path></g><g id="svga-group-hair-front" ><path id="SvgjsPath4391" d="M152.983 98.604c-4.563-12.435 0.717-31.506-8.205-45.615 -4.064-6.762-7.597-11.409-6.95-19.276l-0.368-0.124c-0.862 1.352-1.994 2.82-2.745 3.76 0.427-1.091 1.123-2.762 1.753-4.023l-0.332-0.218c-2.585 3.073-4.805 4.649-7.859 5.5 3.3-2.32 6.949-6.357 8.546-8.595l-0.271-0.284c-11.319 7.283-24.164 7.382-35.496 7.471 -10.227 0.076-16.579-0.155-23.953-4.441 -5.321 1.764-9.511 1.539-14.116-1.635 -14.414 27.947-8.01 13.957-16.627 65.764 -5.004-6.67-6.458-10.912-7.642-17.267 -0.313-2.027-0.619-5.154-0.429-7.215l-0.063-0.065c-4.452-9.77-6.553-15.333-5.495-34.712 0.785-8.04 2.533-14.076 7.574-20.398 -0.665-3.435-0.729-6.898-0.277-10.21 -2.64-4.827-4.457-9.795-5.165-11.57 3.688 2.823 3.993 2.986 7.07 3.957 0.704-1.937 1.73-3.861 2.387-4.865 0.297 2.238 0.533 3.75 1.203 5.925 0.228 0.055 1.313 0.349 1.66 0.442 -0.199-1.324-0.381-1.938-0.353-3.125 0.571 1.302 1.053 1.604 2.71 3.626 1.834 0.385 1.394 0.328 1.944 0.328 -2.669-4.183-4.47-7.885-4.927-13.515 3.653 2.081 8.764 3.27 14.101 3.27 12.539 0 25.369-9.412 43.169-9.412 15.425 0 28.771 8.558 34.683 18.303 -0.006-2.514-0.113-4.594 0.794-7.178 0 0 0.105 3.705 0.105 6.592l0.396 0.037c0.62-3.301 1.928-6.115 4.088-8.773 -1.918 5.158-1.188 2.404-3.334 8.702l0.348 0.187c1.431-1.839 2.603-3.139 6.019-4.862 -2.468 2.473-4.355 3.89-5.522 5.639l0.301 0.259c1.456-1.32 2.971-1.82 4.512-0.613 -2.481-0.902-3.946 0.679-5.648 2.675 6.619 1.091 10.21 4.91 14.864 10.015 10.712 12.352 13.533 24.411 7.723 41.506 2.435 5.263 2.06 17.125-3.375 26.686C159.779 86.867 155.941 93.789 152.983 98.604z" fill="#2a232b" stroke-width="none" opacity="1"></path><path id="SvgjsPath4392" d="M62.299 30.371c0.359 0.334 0.718 0.668 1.074 1.004 -0.129-0.085-0.258-0.164-0.388-0.253 -14.414 27.947-8.01 13.957-16.627 65.764 -5.004-6.67-6.458-10.912-7.642-17.267 -0.313-2.027-0.619-5.154-0.429-7.215l-0.063-0.065c-4.452-9.77-6.553-15.333-5.495-34.712 0.785-8.04 2.533-14.076 7.574-20.398 -0.654-3.378-0.72-6.782-0.293-10.044 0.597 0.874 1.223 1.725 1.863 2.565C42.304 12.374 42.669 14.933 42 17c-9.539 29.478-4 43 2 64 -2.464-15.931-7.142-36.185 5.619-48C44.168 46.096 45.673 52.034 47 61 47.917 49.082 52.195 37.996 62.299 30.371zM155.432 13.06c-0.376-0.412-0.742-0.812-1.106-1.207 -0.382 0.255-0.774 0.489-1.159 0.737 14.956 30.661 0.594 27.717 4.017 41.409C161.183 63.999 156 70 156 80c0-15-0.681-25.439-8.96-37.175 -2.796-3.963-3.581-17.423-5.465-24.074C118.373 33 84.002 35.981 47.916 7.183c17 6 51.649 1.35 63.543-6.316 -13.558 2.461-41.862 2.608-54.59-2.631 30.5-2.37 30.131-12.16 56.131-14C100.5-20.431 73.196-8.51 60.658-8.51c-5.336 0-10.447-1.188-14.101-3.27 0.457 5.63 2.258 9.333 4.927 13.515 -0.551 0-0.11 0.057-1.944-0.328 -1.658-2.022-2.14-2.325-2.71-3.626 -0.029 1.187 0.154 1.801 0.353 3.125 -0.347-0.093-1.433-0.387-1.66-0.442 -0.67-2.175-0.906-3.687-1.203-5.925 -0.656 1.004-1.683 2.928-2.387 4.865 -3.078-0.971-3.382-1.134-7.07-3.957 0.708 1.775 2.525 6.744 5.165 11.57 -0.007 0.055-0.009 0.111-0.016 0.166 6.305 9.235 15.169 16.471 23.363 24.192 4.454 2.924 8.558 3.096 13.729 1.382 7.374 4.286 13.727 4.517 23.953 4.441 11.332-0.088 24.177-0.188 35.496-7.471l0.271 0.284c-1.597 2.238-5.246 6.275-8.546 8.595 3.055-0.852 5.274-2.428 7.859-5.5l0.332 0.218c-0.63 1.262-1.326 2.932-1.753 4.023 0.751-0.94 1.883-2.408 2.745-3.76l0.368 0.124c-0.646 7.868 2.886 12.514 6.95 19.276 8.922 14.109 3.643 33.181 8.205 45.615 2.958-4.815 6.796-11.736 6.796-17.352 5.435-9.561 5.81-21.423 3.375-26.686C168.965 37.471 166.144 25.412 155.432 13.06zM156.165 38.709c-0.33-9.524-6.633-21.612-6.633-21.612 -2.946-5.204-5.579-7.687-9.996-8.695 12.426 0.619 17.306 19.179 16.769 28.875C156.254 38.177 156.165 38.709 156.165 38.709zM127.907-1.507c3.283 2.663 4.067 3.423 7.296 7.909 -16.653-29.889-49.333-7.27-59.667-8C86.041 0.573 109.793-14.79 127.907-1.507zM136.369 11.485C116.408 28.033 85.929 21.023 61 13.21 85.827 24.581 117.435 30.734 136.369 11.485zM57.869 29.485c-6.539 3.425-9.616 12.05-9.9 17.75C49.19 42.316 52.854 33.291 57.869 29.485zM49.619 24.735c-9.359 5.699-11.174 18.771-10.25 29.75C40.353 44.343 42.181 31.11 49.619 24.735zM117.064 12.34c-1.006 0.215-7.259 1.072-10.672 1.195 -2.661 0.155-13.037 0.328-22.391-0.048 9.655 2.069 15.454 2.454 22.496 2.045 8.106-0.293 15.36-1.898 21.371-6.796C123.633 11.067 121.828 11.399 117.064 12.34zM150.609 38.885c0 0-0.256-0.441-0.588-1.102 -0.911-1.527-1.945-5.681-5.938-18.736 2.966 24.195 7.817 19.782 9.991 32.283C154.075 46.834 153.761 44.529 150.609 38.885z" fill="#1b141c" stroke-width="none" opacity="1"></path><path id="SvgjsPath4393" d="M157.853 68.131c0.364-3.246 0.217-1.758 0.257-3.61 0.306-6.244-3.426-11.479-1.154-18.987 1.854-5.453 2.925-6.308 2.113-15.801 -0.119-1.37-0.474-4.774-1.102-5.998 0.856 1.489 1.422 4.245 1.725 5.934 1.687 9.543 0.268 10.992-1.521 16.267C155.781 53.906 160.368 57.422 157.853 68.131zM141.575 18.751c1.117 30.37 7.276 23.316 12.717 41.752C150.598 38.757 147.181 56.786 141.575 18.751zM48.369 34.235c-9.19 11.563-8.262 19.899-6 37C42.165 53.925 40.055 47.355 48.369 34.235zM41.772 17.714c-5.274 16.319-6.429 23.684-3.897 41.285C37.406 41.353 37.518 37.458 41.772 17.714zM61.952 30.641C52.322 37.56 47.295 50.217 47 61 48.482 50.695 54.012 37.697 61.952 30.641zM128.855 24.594c-12.051 4.437-31.667 5.625-45.988 1.322C71.706 22.661 54.279 11.723 44.905 4.845c8.498 6.765 23.471 16.807 33.926 20.776 10.863 4.059 27.887 5.567 41.081 2.245 9.248-2.324 14.041-4.52 21.663-9.114C138.182 20.612 133.184 23.242 128.855 24.594zM102.813-11.594c12.167-2.285 26.509 5.558 34.057 14.83 -7.897-11.318-20.837-16.949-28.562-17.083C95.629-14.067 82.513-3.204 56.869-2.265 80.982-1.203 92.573-9.936 102.813-11.594zM112.369 1.235c-17.289 6.143-30.64 7.613-48.807 8.58C82.325 10.97 95.739 9.15 112.369 1.235zM130.536 4.738c-10.662 5.027-15.33 5.851-37.337 7.191C106.996 12.486 119.885 11.769 130.536 4.738zM95.248 20.023c10.644 1.237 29.289-0.105 38.621-9.788 -11.27 9.494-32.119 9.154-48.38 8.508C91.713 19.714 90.59 19.552 95.248 20.023zM140.869 10.735c7.629 2.809 9.489 16.193 12.5 27C152.022 28.156 149.721 12.813 140.869 10.735z" fill="#3a353a" stroke-width="none" opacity="1"></path><path id="SvgjsPath4394" d="M155.579 12.925c-4.348-4.769-8.252-8.97-14.63-10.02 2.094-2.463 3.566-3.379 6.25-1.85 -1.59-1.871-3.417-2.226-5.63-0.22 1.271-1.905 3.468-3.46 6.3-6.43 -4.231 1.985-5.503 3.34-7.12 5.42 2.285-6.703 1.3-3.128 3.72-9.75 -2.529 2.836-4.146 5.92-4.859 9.72 0-5.903-0.185-5.14-0.07-7.72 -1.387 3.089-1.229 5.81-1.229 7.59 -2.233-3.682-5.514-6.8-9.051-9.35 -25.054-18.289-50.039-1.456-63.58 0.58 -5.489 0.927-13.714 0.338-19.35-3.04 0.398 5.764 2.183 9.592 4.79 13.68 -0.001 0-1.47-0.31-1.47-0.31 -2.019-2.434-2.214-2.356-2.96-4.33 -0.191 1.763 0.101 2.74 0.25 3.74 -0.498-0.13-0.957-0.268-1.26-0.34 -0.743-2.414-0.958-4.25-1.23-6.29 -0.614 0.785-1.922 3.18-2.64 5.15 -2.999-0.948-3.214-1.099-7.43-4.33 0.5 1 2.309 6.461 5.44 12.23 -0.47 3.534-0.328 7.06 0.27 10.12 -5.025 6.312-6.77 12.346-7.56 20.44 -1.041 19.059 0.867 24.611 5.53 34.82 0.01 0.01 0.01 0.03 0.02 0.04 -0.177 1.971 0.119 5.102 0.44 7.18 1.179 6.332 2.625 10.693 7.91 17.65 0.02 0.02 0.03 0.05 0.05 0.07 3.395-20.368 3.045-20.867 3.77-25.89 3.572-25.712 3.417-21.872 12.81-40.07 3.813 2.628 8.035 3.552 14.02 1.56 4.342 2.524 8.776 4.45 21.06 4.45 12.171-0.152 26.176 0.412 38.52-7.53 -1.87 2.622-6.118 7.154-9.46 9.18 3.479-0.736 5.975-2.137 9.09-5.84 -0.957 1.915-2.083 4.814-2.17 5.16 0.15-0.18 2.15-2.57 3.51-4.7 -0.653 7.945 2.894 12.597 6.98 19.4 8.956 14.163 3.511 33.521 8.33 45.96 3.09-4.996 7.04-12.086 7.04-17.75 5.21-9.086 5.956-21.111 3.39-26.75C168.587 38.924 167.533 26.708 155.579 12.925zM46.789-2.465c0.488 1.389 0.595 1.359 2.49 3.61 -0.94-0.195-1.565-0.332-2.13-0.46C46.93-0.371 46.789-1.375 46.789-2.465zM44.279-5.125c0.094 1.532 0.459 3.542 0.99 5.31 -2.865-0.737-1.8-0.504-2.8-0.8C43.292-3.089 43.602-3.715 44.279-5.125zM45.999 95.095c-4.216-7.605-5.323-10.191-6.49-17.89 -0.114-0.886-0.472-3.446-0.49-4.67 -6.07-13.88-8.352-40.236 1.21-54.74 0-0.01 0-0.01 0-0.01s0.399-0.624 1.12-1.52c-0.267-1.344-0.531-4.18-0.44-7.28 0.74 1.32 1.58 2.52 2.33 3.67 0-0.003 0.59 0.781 0.59 0.8 4.551 5.79 8.754 10.604 18.92 17.75C50.544 50.979 51.301 44.3 45.999 95.095zM163.639 48.206c-0.356 2.358-1.123 5.583-1.539 6.99 2.78 7.068-0.257 20.417-3.061 26.38 -1.226 7.093-2.545 8.521-6.01 15.59 -2.477-11 2.583-30.519-6.76-45.08 -6.059-10.044-8.657-11.36-7.23-23.77 0 0 0.061-0.675 0.08-0.85 -12.628 7.721-26.576 8.594-44.97 8.2 -5.317 0-12.5-0.668-16.98-3.44 -9.081 2.583-12.45-1.437-20.01-7.34 -8.163-6.937-13.709-12.994-20.55-27.27 3.843 3.118 11.537 4.689 16.39 5.5 -3.273-4.363-5.199-8.349-6.07-14 3.48 2.32 11.82 4.603 19.17 3.79 13.534-1.271 32.484-15.167 55.77-4.63 10.804 4.767 16.286 11.476 17.57 15 0.01 0 0.02 0.01 0.04 0.01 0.06 0.02 0.12 0.03 0.189 0.04 0.017 0.018 0.332 0.09 0.36 0.09 6.976 2.325 7.443 2.759 14.2 10.64C158.026 18.715 167.168 28.016 163.639 48.206z" fill="#000000" stroke-width="none" opacity="1"></path></g><g id="svga-group-glasses-single" ><path id="SvgjsPath4281" d="M100,18.13L100,18.13L100,18.13L100,18.13z" fill="#26120b" stroke-width="none" opacity="1"></path></g></g></g><rect id="SvgjsRect1036" width="200" height="15" x="0" y="185" fill="#ecf0f1" opacity="0.5" style="display:none;"></rect><text id="SvgjsText1037" font-family="&quot;Roboto&quot;, &quot;Helvetica Neue&quot;, Helvetica, Arial, sans-serif" style="font-size:0.84em;font-family:&quot;Roboto&quot;, &quot;Helvetica Neue&quot;, Helvetica, Arial, sans-serif;text-anchor:middle;font-weight:400;display:none;" font-size="0.84em" text-anchor="middle" font-weight="400" fill="#000000" x="100" y="185"><tspan id="SvgjsTspan1038" dy="1.2em" x="100" style="font-size:0.84em;font-family:&quot;Roboto&quot;, &quot;Helvetica Neue&quot;, Helvetica, Arial, sans-serif;text-anchor:middle;font-weight:400;">Created on AvatarMaker.com</tspan></text></g><defs id="SvgjsDefs1001"><radialGradient id="SvgjsRadialGradient2886" cx="100" cy="114" r="41" gradientUnits="userSpaceOnUse" class="svga-on-canvas-facehighlight-gradient-single-0"><stop id="SvgjsStop2887" stop-opacity="0.5" stop-color="#ffe2d6" offset="0" ></stop><stop id="SvgjsStop2888" stop-opacity="0" stop-color="#ffd0bc" offset="0.9" ></stop></radialGradient><radialGradient id="SvgjsRadialGradient2890" cx="100" cy="54" r="37" gradientUnits="userSpaceOnUse" class="svga-on-canvas-facehighlight-gradient-single-1"><stop id="SvgjsStop2891" stop-opacity="0.5" stop-color="#ffe2d6" offset="0" ></stop><stop id="SvgjsStop2892" stop-opacity="0" stop-color="#ffd0bc" offset="0.9" ></stop></radialGradient><linearGradient id="SvgjsLinearGradient3140" x1="100" y1="171" x2="100" y2="128" gradientUnits="userSpaceOnUse" class="svga-on-canvas-chinshadow-gradient-single-0"><stop id="SvgjsStop3141" stop-opacity="0.8" stop-color="#f0b399" offset="0" ></stop><stop id="SvgjsStop3142" stop-opacity="1" stop-color="#d17f5b" offset="0.7" ></stop></linearGradient><linearGradient id="SvgjsLinearGradient3185" x1="100" y1="142" x2="100" y2="139" gradientUnits="userSpaceOnUse" class="svga-on-canvas-mouth-gradient-single-0"><stop id="SvgjsStop3186" stop-opacity="1" stop-color="#f7c1aa" offset="0.1" ></stop><stop id="SvgjsStop3187" stop-opacity="1" stop-color="#f0b399" offset="1" ></stop></linearGradient><radialGradient id="SvgjsRadialGradient3283" cx="-568.659" cy="-521.042" r="59.751" gradientTransform="matrix(0.096 -0.0248 0.0245 0.0961 141.2814 119.9893)" gradientUnits="userSpaceOnUse" class="svga-on-canvas-eyesiris-gradient-left-1"><stop id="SvgjsStop3284" stop-opacity="1" stop-color="#ffffff" offset="0" ></stop><stop id="SvgjsStop3285" stop-opacity="0" stop-color="#ffffff" offset="1" ></stop></radialGradient><radialGradient id="SvgjsRadialGradient3287" cx="-582.838" cy="-519.099" r="59.745" gradientTransform="matrix(0.0991 8.856319e-004 -0.0011 0.0991 131.1134 135.9855)" gradientUnits="userSpaceOnUse" class="svga-on-canvas-eyesiris-gradient-left-2"><stop id="SvgjsStop3288" stop-opacity="1" stop-color="#ffffff" offset="0" ></stop><stop id="SvgjsStop3289" stop-opacity="0" stop-color="#ffffff" offset="1" ></stop></radialGradient><linearGradient id="SvgjsLinearGradient3293" x1="122.67" y1="88.268" x2="123.606" y2="87.152" gradientTransform="matrix(1 0 0 1 -52 0)" gradientUnits="userSpaceOnUse" class="svga-on-canvas-eyesiris-gradient-left-5"><stop id="SvgjsStop3294" stop-opacity="1" stop-color="#ffffff" offset="0" ></stop><stop id="SvgjsStop3295" stop-opacity="0" stop-color="#ffffff" offset="1" ></stop></linearGradient><linearGradient id="SvgjsLinearGradient3301" x1="129.636" y1="79.822" x2="127.91" y2="81.879" gradientTransform="matrix(1 0 0 1 -52 0)" gradientUnits="userSpaceOnUse" class="svga-on-canvas-eyesiris-gradient-left-7"><stop id="SvgjsStop3302" stop-opacity="1" stop-color="#ffffff" offset="0" ></stop><stop id="SvgjsStop3303" stop-opacity="0" stop-color="#ffffff" offset="1" ></stop></linearGradient><radialGradient id="SvgjsRadialGradient3306" cx="-568.654" cy="-521.042" r="59.752" gradientTransform="matrix(0.096 -0.0248 0.0245 0.0961 193.2804 119.9894)" gradientUnits="userSpaceOnUse" class="svga-on-canvas-eyesiris-gradient-right-1"><stop id="SvgjsStop3307" stop-opacity="1" stop-color="#ffffff" offset="0" ></stop><stop id="SvgjsStop3308" stop-opacity="0" stop-color="#ffffff" offset="1" ></stop></radialGradient><radialGradient id="SvgjsRadialGradient3310" cx="-582.833" cy="-519.102" r="59.747" gradientTransform="matrix(0.0991 8.856319e-004 -0.0011 0.0991 183.1126 135.9856)" gradientUnits="userSpaceOnUse" class="svga-on-canvas-eyesiris-gradient-right-2"><stop id="SvgjsStop3311" stop-opacity="1" stop-color="#ffffff" offset="0" ></stop><stop id="SvgjsStop3312" stop-opacity="0" stop-color="#ffffff" offset="1" ></stop></radialGradient><linearGradient id="SvgjsLinearGradient3316" x1="122.67" y1="88.268" x2="123.606" y2="87.152" gradientUnits="userSpaceOnUse" class="svga-on-canvas-eyesiris-gradient-right-5"><stop id="SvgjsStop3317" stop-opacity="1" stop-color="#ffffff" offset="0" ></stop><stop id="SvgjsStop3318" stop-opacity="0" stop-color="#ffffff" offset="1" ></stop></linearGradient><linearGradient id="SvgjsLinearGradient3324" x1="129.636" y1="79.822" x2="127.91" y2="81.879" gradientUnits="userSpaceOnUse" class="svga-on-canvas-eyesiris-gradient-right-7"><stop id="SvgjsStop3325" stop-opacity="1" stop-color="#ffffff" offset="0" ></stop><stop id="SvgjsStop3326" stop-opacity="0" stop-color="#ffffff" offset="1" ></stop></linearGradient><linearGradient id="SvgjsLinearGradient3390" x1="132" y1="78" x2="126" y2="84" gradientTransform="matrix(1 0 0 1 -50 0)" gradientUnits="userSpaceOnUse" class="svga-on-canvas-eyesiris-gradient-left-6"><stop id="SvgjsStop3391" stop-opacity="1" stop-color="#ffffff" offset="0" ></stop><stop id="SvgjsStop3392" stop-opacity="0" stop-color="#ffffff" offset="1" ></stop></linearGradient><linearGradient id="SvgjsLinearGradient3400" x1="132" y1="78" x2="126" y2="84" gradientUnits="userSpaceOnUse" class="svga-on-canvas-eyesiris-gradient-right-6"><stop id="SvgjsStop3401" stop-opacity="1" stop-color="#ffffff" offset="0" ></stop><stop id="SvgjsStop3402" stop-opacity="0" stop-color="#ffffff" offset="1" ></stop></linearGradient><radialGradient id="SvgjsRadialGradient4142" cx="125.379" cy="82.93" r="12.84" gradientTransform="matrix(-1.0592 4.000000e-004 -4.000000e-004 0.9318 206.5112 5.1767)" gradientUnits="userSpaceOnUse" class="svga-on-canvas-eyesback-gradient-left-0"><stop id="SvgjsStop4143" stop-opacity="1" stop-color="#ffffff" offset="0" ></stop><stop id="SvgjsStop4144" stop-opacity="1" stop-color="#fdfefe" offset="0.544" ></stop><stop id="SvgjsStop4145" stop-opacity="1" stop-color="#f6f8f9" offset="0.74" ></stop><stop id="SvgjsStop4146" stop-opacity="1" stop-color="#eaeff2" offset="0.879" ></stop><stop id="SvgjsStop4147" stop-opacity="1" stop-color="#d9e3e8" offset="0.992" ></stop><stop id="SvgjsStop4148" stop-opacity="1" stop-color="#d8e2e7" offset="1" ></stop></radialGradient><radialGradient id="SvgjsRadialGradient4150" cx="125.001" cy="82.93" r="12.841" gradientTransform="matrix(1.0592 4.000000e-004 4.000000e-004 0.9318 -6.5112 5.1767)" gradientUnits="userSpaceOnUse" class="svga-on-canvas-eyesback-gradient-right-0"><stop id="SvgjsStop4151" stop-opacity="1" stop-color="#ffffff" offset="0" ></stop><stop id="SvgjsStop4152" stop-opacity="1" stop-color="#fdfefe" offset="0.544" ></stop><stop id="SvgjsStop4153" stop-opacity="1" stop-color="#f6f8f9" offset="0.74" ></stop><stop id="SvgjsStop4154" stop-opacity="1" stop-color="#eaeff2" offset="0.879" ></stop><stop id="SvgjsStop4155" stop-opacity="1" stop-color="#d9e3e8" offset="0.992" ></stop><stop id="SvgjsStop4156" stop-opacity="1" stop-color="#d8e2e7" offset="1" ></stop></radialGradient><radialGradient id="SvgjsRadialGradient4158" cx="125.379" cy="82.93" r="12.84" gradientTransform="matrix(-1.0592 4.000000e-004 -4.000000e-004 0.9318 206.5112 5.1767)" gradientUnits="userSpaceOnUse" class="svga-on-canvas-eyesfront-gradient-left-0"><stop id="SvgjsStop4159" stop-opacity="1" stop-color="#ffffff" offset="0" ></stop><stop id="SvgjsStop4160" stop-opacity="1" stop-color="#fdfefe" offset="0.544" ></stop><stop id="SvgjsStop4161" stop-opacity="1" stop-color="#f6f8f9" offset="0.74" ></stop><stop id="SvgjsStop4162" stop-opacity="1" stop-color="#eaeff2" offset="0.879" ></stop><stop id="SvgjsStop4163" stop-opacity="1" stop-color="#d9e3e8" offset="0.992" ></stop><stop id="SvgjsStop4164" stop-opacity="1" stop-color="#d8e2e7" offset="1" ></stop></radialGradient><radialGradient id="SvgjsRadialGradient4168" cx="123.218" cy="81.096" fx="133.802" fy="77.197" r="17.898" gradientTransform="matrix(0.9998 0.0183 0.0166 -0.7038 -47.7588 136.6255)" gradientUnits="userSpaceOnUse" class="svga-on-canvas-eyesfront-gradient-left-3"><stop id="SvgjsStop4169" stop-opacity="1" stop-color="#f0b399" offset="0" ></stop><stop id="SvgjsStop4170" stop-opacity="0.3" stop-color="#f0b399" offset="0.7" ></stop><stop id="SvgjsStop4171" stop-opacity="0" stop-color="#ffd0bc" offset="1" ></stop></radialGradient><radialGradient id="SvgjsRadialGradient4173" cx="79.496" cy="81.496" r="23.208" gradientTransform="matrix(1.0971 -0.0499 0.0576 0.9543 -20.1632 27.912)" gradientUnits="userSpaceOnUse" class="svga-on-canvas-eyesfront-gradient-left-4"><stop id="SvgjsStop4174" stop-opacity="0" stop-color="#000000" offset="0.9" ></stop><stop id="SvgjsStop4175" stop-opacity="0.2" stop-color="#000000" offset="1" ></stop></radialGradient><radialGradient id="SvgjsRadialGradient4179" cx="125.001" cy="82.93" r="12.841" gradientTransform="matrix(1.0592 4.000000e-004 4.000000e-004 0.9318 -6.5112 5.1767)" gradientUnits="userSpaceOnUse" class="svga-on-canvas-eyesfront-gradient-right-0"><stop id="SvgjsStop4180" stop-opacity="1" stop-color="#ffffff" offset="0" ></stop><stop id="SvgjsStop4181" stop-opacity="1" stop-color="#fdfefe" offset="0.544" ></stop><stop id="SvgjsStop4182" stop-opacity="1" stop-color="#f6f8f9" offset="0.74" ></stop><stop id="SvgjsStop4183" stop-opacity="1" stop-color="#eaeff2" offset="0.879" ></stop><stop id="SvgjsStop4184" stop-opacity="1" stop-color="#d9e3e8" offset="0.992" ></stop><stop id="SvgjsStop4185" stop-opacity="1" stop-color="#d8e2e7" offset="1" ></stop></radialGradient><radialGradient id="SvgjsRadialGradient4189" cx="122.818" cy="81.096" fx="133.402" fy="77.197" r="17.898" gradientTransform="matrix(-0.9998 0.0183 -0.0166 -0.7038 246.9601 136.6328)" gradientUnits="userSpaceOnUse" class="svga-on-canvas-eyesfront-gradient-right-3"><stop id="SvgjsStop4190" stop-opacity="1" stop-color="#f0b399" offset="0" ></stop><stop id="SvgjsStop4191" stop-opacity="0.3" stop-color="#f0b399" offset="0.7" ></stop><stop id="SvgjsStop4192" stop-opacity="0" stop-color="#ffd0bc" offset="1" ></stop></radialGradient><radialGradient id="SvgjsRadialGradient4194" cx="79.859" cy="81.511" r="23.208" gradientTransform="matrix(-1.0971 -0.0499 -0.0576 0.9543 220.163 27.9157)" gradientUnits="userSpaceOnUse" class="svga-on-canvas-eyesfront-gradient-right-4"><stop id="SvgjsStop4195" stop-opacity="0" stop-color="#000000" offset="0.9" ></stop><stop id="SvgjsStop4196" stop-opacity="0.2" stop-color="#000000" offset="1" ></stop></radialGradient><linearGradient id="SvgjsLinearGradient4271" x1="130" y1="69" x2="130" y2="109" gradientUnits="userSpaceOnUse" class="svga-on-canvas-glasses-gradient-single-0"><stop id="SvgjsStop4272" stop-opacity="1" stop-color="#000000" offset="0" ></stop><stop id="SvgjsStop4273" stop-opacity="0.8" stop-color="#000000" offset="1" ></stop></linearGradient><linearGradient id="SvgjsLinearGradient4275" x1="130" y1="69" x2="130" y2="109" gradientTransform="matrix(-1 0 0 1 200 0)" gradientUnits="userSpaceOnUse" class="svga-on-canvas-glasses-gradient-single-1"><stop id="SvgjsStop4276" stop-opacity="1" stop-color="#000000" offset="0" ></stop><stop id="SvgjsStop4277" stop-opacity="0.8" stop-color="#000000" offset="1" ></stop></linearGradient><radialGradient id="SvgjsRadialGradient4524" cx="100" cy="225" r="250" gradientUnits="userSpaceOnUse" class="svga-on-canvas-backs-gradient-single-1"><stop id="SvgjsStop4525" stop-opacity="0" stop-color="#ecf0f1" offset="0" ></stop><stop id="SvgjsStop4526" stop-opacity="1" stop-color="#c6dce2" offset="1" ></stop></radialGradient></defs></svg>